<?xml version="1.0" encoding="UTF-8" standalone="no"?>
<!DOCTYPE svg PUBLIC "-//W3C//DTD SVG 1.1//EN" "http://www.w3.org/Graphics/SVG/1.1/DTD/svg11.dtd">
<svg width="100%" height="100%" viewBox="0 0 402 64" version="1.1" xmlns="http://www.w3.org/2000/svg" xmlns:xlink="http://www.w3.org/1999/xlink" xml:space="preserve" xmlns:serif="http://www.serif.com/" style="fill-rule:evenodd;clip-rule:evenodd;stroke-linejoin:round;stroke-miterlimit:2;">
    <g transform="matrix(1,0,0,1,-15.9,-7.1)">
        <g>
            <path d="M15.9,30.9L29.5,30.9L29.5,35.6C33.2,32 37.4,30.3 42,30.3C47.7,30.3 52.1,32.7 55.1,37.5C58.2,32.6 62.5,30.2 68.2,30.2C70,30.2 71.7,30.5 73.3,31C74.9,31.5 76.3,32.4 77.4,33.5C78.6,34.6 79.5,36.1 80.1,37.9C80.8,39.7 81.1,41.9 81.1,44.4L81.1,69.4L67.5,69.4L67.5,50.4C67.5,48.4 67.4,46.8 67.1,45.6C66.8,44.3 66.4,43.4 65.9,42.7C65.4,42 64.8,41.5 64.1,41.3C63.4,41.1 62.6,40.9 61.8,40.9C57.4,40.9 55.3,44.1 55.3,50.4L55.3,69.4L41.6,69.4L41.6,50.4C41.6,48.4 41.5,46.8 41.2,45.6C40.9,44.3 40.6,43.3 40.1,42.6C39.6,41.8 39,41.3 38.3,41.1C37.5,40.8 36.7,40.7 35.7,40.7C34.8,40.7 34,40.8 33.3,41.1C32.5,41.4 31.9,41.8 31.3,42.6C30.7,43.3 30.3,44.3 29.9,45.6C29.6,46.9 29.4,48.5 29.4,50.6L29.4,69.6L15.9,69.6L15.9,30.9Z" style="fill:rgb(253,143,130);fill-rule:nonzero;"/>
            <path d="M158.3,42.3L158.3,69.5L144.7,69.5L144.7,42.3L140.2,42.3L140.2,30.9L144.7,30.9L144.7,19.4L158.3,19.4L158.3,31L166,31L166,42.3L158.3,42.3Z" style="fill:rgb(253,143,130);fill-rule:nonzero;"/>
            <path d="M171.3,16.1C171.3,15 171.5,14.1 171.9,13.1C172.3,12.2 172.9,11.4 173.6,10.7C174.3,10 175.1,9.4 176,9C176.9,8.6 177.9,8.4 179,8.4C180.1,8.4 181,8.6 182,9C182.9,9.4 183.7,10 184.4,10.7C185.1,11.4 185.7,12.2 186.1,13.1C186.5,14 186.7,15 186.7,16.1C186.7,17.2 186.5,18.1 186.1,19.1C185.7,20 185.1,20.8 184.4,21.5C183.7,22.2 182.9,22.8 182,23.2C181.1,23.6 180.1,23.8 179,23.8C177.9,23.8 177,23.6 176,23.2C175.1,22.8 174.3,22.2 173.6,21.5C172.9,20.8 172.3,20 171.9,19.1C171.5,18.2 171.3,17.2 171.3,16.1ZM185.8,30.9L185.8,69.4L172.2,69.4L172.2,30.9L185.8,30.9Z" style="fill:rgb(253,143,130);fill-rule:nonzero;"/>
            <path d="M247.6,30.9L261.2,30.9L261.2,35.8C263.1,33.5 264.9,32 266.8,31.3C268.7,30.5 270.9,30.1 273.5,30.1C276.2,30.1 278.5,30.5 280.4,31.4C282.3,32.3 284,33.5 285.3,35.1C286.4,36.4 287.2,37.9 287.6,39.5C288,41.1 288.2,42.9 288.2,45L288.2,69.5L274.6,69.5L274.6,50C274.6,48.1 274.5,46.6 274.2,45.4C273.9,44.2 273.4,43.3 272.7,42.6C272.1,42 271.4,41.6 270.7,41.3C269.9,41.1 269.1,40.9 268.3,40.9C266,40.9 264.2,41.6 263,43C261.8,44.4 261.2,46.3 261.2,48.9L261.2,69.5L247.6,69.5L247.6,30.9Z" style="fill:rgb(253,143,130);fill-rule:nonzero;"/>
            <rect x="297.5" y="7.1" width="13.6" height="62.3" style="fill:rgb(253,143,130);fill-rule:nonzero;"/>
            <path d="M350,30.9L363.8,30.9L363.8,69.4L350.1,69.4L350.1,65.1C347.2,68.8 343.3,70.6 338.3,70.6C335.5,70.6 332.9,70.1 330.6,69.1C328.2,68.1 326.2,66.6 324.4,64.8C322.6,62.9 321.3,60.8 320.3,58.3C319.3,55.8 318.8,53.1 318.8,50.1C318.8,47.3 319.3,44.7 320.2,42.3C321.2,39.8 322.5,37.7 324.2,35.8C325.9,33.9 327.9,32.5 330.3,31.4C332.7,30.3 335.3,29.8 338.1,29.8C342.9,29.8 346.9,31.5 350,34.8L350,30.9ZM333,50.1C333,51.4 333.2,52.5 333.7,53.6C334.2,54.7 334.8,55.6 335.5,56.4C336.3,57.2 337.2,57.8 338.3,58.3C339.4,58.8 340.5,59 341.8,59C343,59 344.1,58.8 345.2,58.3C346.3,57.8 347.2,57.2 348,56.4C348.8,55.6 349.4,54.7 349.9,53.6C350.4,52.5 350.6,51.4 350.6,50.2C350.6,49 350.4,47.9 349.9,46.8C349.4,45.7 348.8,44.8 348,44C347.2,43.2 346.3,42.6 345.2,42.1C344.1,41.6 343,41.4 341.8,41.4C340.5,41.4 339.4,41.6 338.3,42.1C337.2,42.6 336.3,43.2 335.5,44C334.7,44.8 334.1,45.7 333.7,46.7C333.2,47.8 333,48.9 333,50.1Z" style="fill:rgb(253,143,130);fill-rule:nonzero;"/>
            <path d="M386.6,7.1L386.6,34.7C389.8,31.3 393.8,29.7 398.6,29.7C401.5,29.7 404.1,30.2 406.4,31.3C408.8,32.4 410.8,33.8 412.5,35.7C414.2,37.5 415.5,39.7 416.4,42.2C417.4,44.7 417.8,47.3 417.8,50.1C417.8,53 417.3,55.6 416.3,58.1C415.3,60.6 414,62.8 412.2,64.6C410.4,66.5 408.4,67.9 406,69C403.6,70.1 401.1,70.6 398.3,70.6C393.3,70.6 389.3,68.8 386.4,65.1L386.4,69.4L373,69.4L373,7.1L386.6,7.1ZM403.7,50.3C403.7,49.1 403.5,48 403,46.9C402.5,45.8 401.9,44.9 401.1,44.1C400.3,43.3 399.4,42.7 398.3,42.2C397.2,41.7 396.1,41.5 394.8,41.5C393.6,41.5 392.5,41.7 391.4,42.2C390.3,42.7 389.4,43.3 388.7,44.1C387.9,44.9 387.3,45.8 386.8,46.9C386.3,48 386.1,49.1 386.1,50.3C386.1,51.5 386.3,52.6 386.8,53.7C387.3,54.8 387.9,55.7 388.7,56.4C389.5,57.2 390.4,57.8 391.5,58.3C392.6,58.8 393.7,59 394.9,59C396.1,59 397.2,58.8 398.3,58.3C399.4,57.8 400.3,57.2 401,56.4C401.8,55.6 402.4,54.7 402.9,53.6C403.5,52.6 403.7,51.5 403.7,50.3Z" style="fill:rgb(253,143,130);fill-rule:nonzero;"/>
        </g>
        <g>
            <path d="M133.4,41.9C132.2,39.4 130.6,37.2 128.6,35.4C126.5,33.6 124.1,32.1 121.2,31.1C118.4,30.1 115.3,29.6 112,29.6C108.6,29.6 105.6,30.1 102.7,31.2C99.9,32.3 97.4,33.7 95.4,35.5C93.3,37.3 91.7,39.5 90.6,42C89.4,44.5 88.9,47.1 88.9,50L88.9,50.5L103.2,50.5L103.2,50.1C103.2,48.9 103.4,47.8 103.9,46.7C104.4,45.6 105,44.7 105.8,43.9C106.6,43.1 107.5,42.5 108.6,42C109.7,41.5 110.8,41.3 112,41.3C113.2,41.3 114.3,41.5 115.4,42C116.5,42.5 117.4,43.1 118.2,43.9C119,44.7 119.6,45.6 120.1,46.7C120.6,47.8 120.8,48.9 120.8,50.1C120.8,51.4 120.6,52.5 120.1,53.6C119.6,54.7 119,55.6 118.2,56.4C117.4,57.2 116.5,57.8 115.4,58.3C114.3,58.8 113.2,59 112,59L111.8,59L111.8,70.9C115.1,70.9 118.3,70.4 121.1,69.4C124,68.4 126.4,67 128.5,65.2C130.6,63.4 132.2,61.2 133.3,58.7C134.5,56.2 135.1,53.4 135.1,50.3C135.1,47.2 134.5,44.4 133.4,41.9Z" style="fill:rgb(253,143,130);fill-rule:nonzero;"/>
            <path d="M194.9,58.5C196.1,61 197.7,63.2 199.7,65C201.8,66.8 204.2,68.3 207.1,69.3C209.9,70.3 213,70.8 216.3,70.8C219.7,70.8 222.7,70.3 225.6,69.2C228.4,68.1 230.9,66.7 232.9,64.9C235,63.1 236.6,60.9 237.7,58.4C238.9,55.9 239.4,53.3 239.4,50.4L239.4,49.9L225.1,49.9L225.1,50.3C225.1,51.5 224.9,52.6 224.4,53.7C223.9,54.8 223.3,55.7 222.5,56.5C221.7,57.3 220.8,57.9 219.7,58.4C218.6,58.9 217.5,59.1 216.3,59.1C215.1,59.1 214,58.9 212.9,58.4C211.8,57.9 210.9,57.3 210.1,56.5C209.3,55.7 208.7,54.8 208.2,53.7C207.7,52.6 207.5,51.5 207.5,50.3C207.5,49 207.7,47.9 208.2,46.8C208.7,45.7 209.3,44.8 210.1,44C210.9,43.2 211.8,42.6 212.9,42.1C214,41.6 215.1,41.4 216.3,41.4L216.5,41.4L216.5,29.5C213.2,29.5 210,30 207.2,31C204.3,32 201.9,33.4 199.8,35.2C197.7,37 196.1,39.2 195,41.7C193.8,44.2 193.2,47 193.2,50.1C193.2,53.2 193.8,56 194.9,58.5Z" style="fill:rgb(253,143,130);fill-rule:nonzero;"/>
        </g>
    </g>
</svg>
